<svg width="31" height="19" viewBox="0 0 31 19" fill="none" xmlns="http://www.w3.org/2000/svg">
<path d="M8.7045 0.119934C9.588 0.119934 10.383 0.196434 11.112 0.352434C11.8365 0.506934 12.4545 0.761934 12.9765 1.11443C13.491 1.46693 13.893 1.93493 14.1825 2.52293C14.463 3.10343 14.6025 3.82943 14.6025 4.68743C14.6025 5.61743 14.3925 6.39443 13.971 7.01393C13.5465 7.63493 12.921 8.14343 12.087 8.53643C13.2225 8.86493 14.064 9.43943 14.622 10.2554C15.183 11.0789 15.4575 12.0644 15.4575 13.2194C15.4575 14.1569 15.279 14.9624 14.9205 15.6389C14.575 16.3054 14.0738 16.8786 13.4595 17.3099C12.8232 17.7531 12.1124 18.0782 11.361 18.2699C10.5732 18.4767 9.76197 18.5806 8.9475 18.5789H0V0.119934H8.7045ZM8.178 7.57793C8.898 7.57793 9.495 7.40693 9.966 7.06043C10.434 6.71843 10.6605 6.15443 10.6605 5.38193C10.6605 4.95293 10.584 4.59893 10.434 4.32143C10.2879 4.05446 10.0716 3.83248 9.8085 3.67943C9.53315 3.51613 9.22925 3.40668 8.913 3.35693C8.56829 3.29264 8.21814 3.262 7.8675 3.26543H4.065V7.57793H8.178ZM8.4045 15.4364C8.805 15.4364 9.186 15.4019 9.5445 15.3209C9.906 15.2429 10.227 15.1169 10.5 14.9294C10.773 14.7494 10.998 14.5049 11.16 14.1929C11.3235 13.8839 11.403 13.4804 11.403 12.9959C11.403 12.0449 11.1345 11.3684 10.6035 10.9589C10.071 10.5539 9.357 10.3529 8.4825 10.3529H4.065V15.4379H8.4045V15.4364ZM21.252 15.3749C21.8025 15.9119 22.596 16.1819 23.628 16.1819C24.3675 16.1819 25.0065 15.9944 25.545 15.6224C26.076 15.2489 26.4 14.8499 26.5245 14.4374H29.757C29.238 16.0454 28.4505 17.1944 27.3735 17.8859C26.31 18.5804 25.0155 18.9254 23.5035 18.9254C22.4505 18.9254 21.5025 18.7559 20.6535 18.4199C19.8386 18.1026 19.1022 17.6123 18.495 16.9829C17.8978 16.3389 17.4362 15.5814 17.1375 14.7554C16.8092 13.8421 16.6466 12.8774 16.6575 11.9069C16.6575 10.9079 16.824 9.97343 17.151 9.11094C17.4614 8.27721 17.9381 7.51528 18.552 6.87143C19.1595 6.24143 19.8795 5.74493 20.718 5.38043C21.5997 5.0096 22.5485 4.82474 23.505 4.83743C24.636 4.83743 25.6245 5.05643 26.4735 5.49743C27.2968 5.9184 28.0107 6.52546 28.5585 7.27043C29.103 8.00993 29.4915 8.85743 29.733 9.80693C29.9745 10.7549 30.0585 11.7449 29.9895 12.7814H20.343C20.3445 13.8374 20.7 14.8379 21.252 15.3749ZM25.47 8.35343C25.0335 7.87043 24.2955 7.60943 23.3925 7.60943C22.806 7.60943 22.3215 7.70693 21.9315 7.90793C21.5749 8.08804 21.2585 8.33859 21.0015 8.64443C20.7758 8.92211 20.6084 9.24252 20.5095 9.58643C20.423 9.87321 20.3672 10.1684 20.343 10.4669H26.316C26.229 9.53093 25.908 8.83943 25.47 8.35343ZM19.593 1.35893H27.0765V3.18143H19.593V1.35893Z" fill="black"/>
</svg>
