<svg width="28" height="28" viewBox="0 0 28 28" fill="none" xmlns="http://www.w3.org/2000/svg">
<path d="M13.9984 6.58894C12.1589 6.58894 10.3947 7.3197 9.09394 8.62045C7.79319 9.9212 7.06243 11.6854 7.06243 13.5249C7.06243 15.3645 7.79319 17.1287 9.09394 18.4294C10.3947 19.7302 12.1589 20.4609 13.9984 20.4609C15.838 20.4609 17.6022 19.7302 18.9029 18.4294C20.2037 17.1287 20.9344 15.3645 20.9344 13.5249C20.9344 11.6854 20.2037 9.9212 18.9029 8.62045C17.6022 7.3197 15.838 6.58894 13.9984 6.58894ZM13.9984 18.0294C12.8034 18.0294 11.6572 17.5547 10.8122 16.7097C9.96717 15.8646 9.49243 14.7185 9.49243 13.5234C9.49243 12.3284 9.96717 11.1823 10.8122 10.3372C11.6572 9.49218 12.8034 9.01744 13.9984 9.01744C15.1935 9.01744 16.3396 9.49218 17.1847 10.3372C18.0297 11.1823 18.5044 12.3284 18.5044 13.5234C18.5044 14.7185 18.0297 15.8646 17.1847 16.7097C16.3396 17.5547 15.1935 18.0294 13.9984 18.0294Z" fill="black"/>
<path d="M21.2089 7.95094C22.102 7.95094 22.8259 7.22699 22.8259 6.33394C22.8259 5.4409 22.102 4.71695 21.2089 4.71695C20.3159 4.71695 19.5919 5.4409 19.5919 6.33394C19.5919 7.22699 20.3159 7.95094 21.2089 7.95094Z" fill="black"/>
<path d="M26.7994 4.68995C26.4522 3.79322 25.9215 2.97887 25.2414 2.29903C24.5613 1.6192 23.7468 1.08885 22.8499 0.741945C21.8004 0.34798 20.6917 0.134957 19.5709 0.111945C18.1264 0.0489447 17.6689 0.0309448 14.0059 0.0309448C10.3429 0.0309448 9.87343 0.0309447 8.44093 0.111945C7.32101 0.13378 6.21307 0.346847 5.16493 0.741945C4.26783 1.08845 3.45308 1.61865 2.77293 2.29854C2.09279 2.97842 1.56227 3.79298 1.21543 4.68995C0.821387 5.73936 0.608851 6.8482 0.58693 7.96895C0.52243 9.41195 0.50293 9.86944 0.50293 13.5339C0.50293 17.1969 0.50293 17.6634 0.58693 19.0989C0.60943 20.2209 0.82093 21.3279 1.21543 22.3794C1.56325 23.2761 2.09427 24.0903 2.77458 24.7701C3.45489 25.4499 4.26953 25.9803 5.16643 26.3274C6.21258 26.7372 7.32099 26.9655 8.44393 27.0024C9.88843 27.0654 10.3459 27.0849 14.0089 27.0849C17.6719 27.0849 18.1414 27.0849 19.5739 27.0024C20.6946 26.9797 21.8033 26.7671 22.8529 26.3739C23.7496 26.0262 24.5639 25.4954 25.2439 24.8154C25.9239 24.1354 26.4547 23.3211 26.8024 22.4244C27.1969 21.3744 27.4084 20.2674 27.4309 19.1454C27.4954 17.7024 27.5149 17.2449 27.5149 13.5804C27.5149 9.91595 27.5149 9.45095 27.4309 8.01545C27.4135 6.87885 27.1998 5.75382 26.7994 4.68995ZM24.9724 18.9879C24.9628 19.8524 24.805 20.7088 24.5059 21.5199C24.2807 22.1032 23.9358 22.6329 23.4935 23.075C23.0513 23.517 22.5214 23.8615 21.9379 24.0864C21.1358 24.3841 20.2885 24.5419 19.4329 24.5529C18.0079 24.6189 17.6059 24.6354 13.9519 24.6354C10.2949 24.6354 9.92143 24.6354 8.46943 24.5529C7.61432 24.5425 6.76742 24.3847 5.96593 24.0864C5.38046 23.8629 4.84843 23.519 4.40426 23.0769C3.9601 22.6348 3.61368 22.1044 3.38743 21.5199C3.0926 20.7175 2.9349 19.8712 2.92093 19.0164C2.85643 17.5914 2.84143 17.1894 2.84143 13.5354C2.84143 9.87995 2.84143 9.50644 2.92093 8.05295C2.93063 7.18898 3.08841 6.33307 3.38743 5.52244C3.84493 4.33894 4.78243 3.40744 5.96593 2.95444C6.76781 2.65766 7.61447 2.49989 8.46943 2.48795C9.89593 2.42344 10.2964 2.40544 13.9519 2.40544C17.6074 2.40544 17.9824 2.40545 19.4329 2.48795C20.2885 2.49824 21.136 2.65605 21.9379 2.95444C22.5213 3.17985 23.0511 3.52475 23.4934 3.96699C23.9356 4.40923 24.2805 4.93905 24.5059 5.52244C24.8008 6.32487 24.9585 7.17119 24.9724 8.02595C25.0369 9.45245 25.0534 9.85295 25.0534 13.5084C25.0534 17.1624 25.0534 17.5554 24.9889 18.9894H24.9724V18.9879Z" fill="black"/>
</svg>
